<?xml version="1.0" encoding="UTF-8" standalone="no"?>
<svg
   xmlns:dc="http://purl.org/dc/elements/1.1/"
   xmlns:cc="http://creativecommons.org/ns#"
   xmlns:rdf="http://www.w3.org/1999/02/22-rdf-syntax-ns#"
   xmlns:svg="http://www.w3.org/2000/svg"
   xmlns="http://www.w3.org/2000/svg"
   xmlns:sodipodi="http://sodipodi.sourceforge.net/DTD/sodipodi-0.dtd"
   xmlns:inkscape="http://www.inkscape.org/namespaces/inkscape"
   version="1.1"
   width="3.9396453cm"
   height="2.8323147cm"
   viewBox="0 0 15510.425 11150.856"
   id="svg290"
   sodipodi:docname="psu.svg"
   inkscape:version="0.92.4 (5da689c313, 2019-01-14)">
  <metadata
     id="metadata296">
    <rdf:RDF>
      <cc:Work
         rdf:about="">
        <dc:format>image/svg+xml</dc:format>
        <dc:type
           rdf:resource="http://purl.org/dc/dcmitype/StillImage" />
        <dc:title>SVG Picture created as psu.svg date 2019/04/24 21:37:25 </dc:title>
      </cc:Work>
    </rdf:RDF>
  </metadata>
  <defs
     id="defs294" />
  <sodipodi:namedview
     pagecolor="#ffffff"
     bordercolor="#666666"
     borderopacity="1"
     objecttolerance="10"
     gridtolerance="10"
     guidetolerance="10"
     inkscape:pageopacity="0"
     inkscape:pageshadow="2"
     inkscape:window-width="640"
     inkscape:window-height="480"
     id="namedview292"
     showgrid="false"
     fit-margin-top="0"
     fit-margin-left="0"
     fit-margin-right="0"
     fit-margin-bottom="0"
     inkscape:zoom="0.27794426"
     inkscape:cx="139.33965"
     inkscape:cy="-61.435798"
     inkscape:window-x="2643"
     inkscape:window-y="284"
     inkscape:window-maximized="0"
     inkscape:current-layer="svg290" />
  <title
     id="title2">SVG Picture created as psu.svg date 2019/04/24 21:37:25 </title>
  <desc
     id="desc4">Picture generated by Eeschema-SVG </desc>
  <g
     style="fill:#000000;fill-opacity:1;stroke:#000000;stroke-linecap:round;stroke-linejoin:round;stroke-opacity:1"
     id="g6"
     transform="translate(-44700,-23789.573)" />
  <g
     style="fill:#000000;fill-opacity:0;stroke:#000000;stroke-width:0;stroke-linecap:round;stroke-linejoin:round;stroke-opacity:1"
     id="g70"
     transform="translate(-44700,-23789.573)">
    <g
       id="g8" />
    <g
       style="fill:#840000;fill-opacity:0;stroke:#840000;stroke-width:0;stroke-linecap:round;stroke-linejoin:round;stroke-opacity:1"
       id="g10" />
    <g
       style="fill:#840000;fill-opacity:0;stroke:#840000;stroke-width:100;stroke-linecap:round;stroke-linejoin:round;stroke-opacity:1"
       id="g14">
      <circle
         cx="54000"
         cy="31000"
         r="1110"
         id="circle12" />
    </g>
    <g
       style="fill:#840000;fill-opacity:0;stroke:#840000;stroke-width:60;stroke-linecap:round;stroke-linejoin:round;stroke-opacity:1"
       id="g20">
      <path
         style="fill:none;fill-opacity:0;stroke:#840000;stroke-width:60;stroke-linecap:round;stroke-linejoin:round;stroke-opacity:1"
         d="m 53750,30750 750,-750 z"
         id="path16"
         inkscape:connector-curvature="0" />
      <path
         style="fill:none;fill-opacity:0;stroke:#840000;stroke-width:60;stroke-linecap:round;stroke-linejoin:round;stroke-opacity:1"
         d="m 53750,31250 750,750 v 0 z"
         id="path18"
         inkscape:connector-curvature="0" />
    </g>
    <g
       style="fill:#840000;fill-opacity:0;stroke:#840000;stroke-width:200;stroke-linecap:round;stroke-linejoin:round;stroke-opacity:1"
       id="g24">
      <path
         style="fill:none;fill-opacity:0;stroke:#840000;stroke-width:200;stroke-linecap:round;stroke-linejoin:round;stroke-opacity:1"
         d="m 53750,30250 v 1500 0 z"
         id="path22"
         inkscape:connector-curvature="0" />
    </g>
    <g
       style="fill:#840000;fill-opacity:1;stroke:#840000;stroke-width:60;stroke-linecap:round;stroke-linejoin:round;stroke-opacity:1"
       id="g28">
      <path
         style="fill:#840000;fill-opacity:1;fill-rule:evenodd;stroke:#840000;stroke-width:60;stroke-linecap:round;stroke-linejoin:round;stroke-opacity:1"
         d="m 54000,31700 200,-200 200,400 z"
         id="path26"
         inkscape:connector-curvature="0" />
    </g>
    <g
       style="fill:#840000;fill-opacity:0;stroke:#840000;stroke-width:60;stroke-linecap:round;stroke-linejoin:round;stroke-opacity:1"
       id="g44">
      <path
         d="m 54500,32000 v 1000"
         id="path30"
         inkscape:connector-curvature="0" />
      <path
         d="m 55070,32350 v 290"
         id="path32"
         inkscape:connector-curvature="0" />
      <path
         d="m 55070,32500 h -500 l 70,40 50,50 20,50"
         id="path34"
         inkscape:connector-curvature="0" />
      <path
         d="M 53750,31000 H 51500"
         id="path36"
         inkscape:connector-curvature="0" />
      <path
         d="m 52470,31120 30,-20 40,-30 h 120 l 50,30 20,20 30,50 v 40 l -30,80 -280,280 h 310"
         id="path38"
         inkscape:connector-curvature="0" />
      <path
         d="M 54500,30000 V 29000"
         id="path40"
         inkscape:connector-curvature="0" />
      <path
         d="m 54570,29660 v -310 l 190,170 v -70 l 30,-50 20,-20 50,-30 h 120 l 40,30 30,20 20,50 v 140 l -20,50 -30,20"
         id="path42"
         inkscape:connector-curvature="0" />
    </g>
    <g
       style="fill:#008484;fill-opacity:0;stroke:#008484;stroke-width:60;stroke-linecap:round;stroke-linejoin:round;stroke-opacity:1"
       id="g68">
      <path
         d="m 55880,30830 -50,-20 -50,-50 -70,-70 -50,-30 h -40"
         id="path46"
         inkscape:connector-curvature="0" />
      <path
         d="m 55640,30780 -50,-20 -50,-50 -20,-100 v -160 l 20,-100 50,-40 50,-30 h 90 l 50,30 50,40 20,100 v 160 l -20,100 -50,50 -50,20 h -90"
         id="path48"
         inkscape:connector-curvature="0" />
      <path
         d="m 56330,30780 h -290"
         id="path50"
         inkscape:connector-curvature="0" />
      <path
         d="m 56190,30780 v -500 l -50,70 -50,50 -50,20"
         id="path52"
         inkscape:connector-curvature="0" />
      <path
         d="m 55520,31240 20,-20 50,-30 h 120 l 50,30 20,20 20,50 v 40 l -20,80 -290,280 h 310"
         id="path54"
         inkscape:connector-curvature="0" />
      <path
         d="m 56020,31690 v -500 l 280,500 v -500"
         id="path56"
         inkscape:connector-curvature="0" />
      <path
         d="m 56490,31190 h 310 l -160,190 h 70 l 50,30 20,20 20,50 v 120 l -20,40 -20,30 -50,20 h -140 l -50,-20 -30,-30"
         id="path58"
         inkscape:connector-curvature="0" />
      <path
         d="m 57040,31690 h 100 l 40,-20 30,-30 50,-70 20,-90 v -190 l -20,-50 -30,-20 -50,-30 h -90 l -50,30 -20,20 -30,50 v 120 l 30,40 20,30 50,20 h 90 l 50,-20 30,-30 20,-40"
         id="path60"
         inkscape:connector-curvature="0" />
      <path
         d="m 57590,31190 h 50 l 40,30 30,20 20,50 30,90 v 120 l -30,100 -20,40 -30,30 -40,20 h -50 l -50,-20 -20,-30 -30,-40 -20,-100 v -120 l 20,-90 30,-50 20,-20 50,-30"
         id="path62"
         inkscape:connector-curvature="0" />
      <path
         d="m 58180,31360 v 330"
         id="path64"
         inkscape:connector-curvature="0" />
      <path
         d="m 58070,31170 -120,350 h 310"
         id="path66"
         inkscape:connector-curvature="0" />
    </g>
  </g>
  <g
     style="fill:#008484;fill-opacity:0;stroke:#008484;stroke-width:0;stroke-linecap:round;stroke-linejoin:round;stroke-opacity:1"
     id="g108"
     transform="translate(-44700,-23789.573)">
    <g
       id="g72" />
    <g
       style="fill:#840000;fill-opacity:0;stroke:#840000;stroke-width:0;stroke-linecap:round;stroke-linejoin:round;stroke-opacity:1"
       id="g74" />
    <g
       style="fill:#840000;fill-opacity:0;stroke:#840000;stroke-width:100;stroke-linecap:round;stroke-linejoin:round;stroke-opacity:1"
       id="g78">
      <rect
         x="48500"
         y="30600"
         width="2000"
         height="800"
         rx="0"
         id="rect76" />
    </g>
    <g
       style="fill:#840000;fill-opacity:0;stroke:#840000;stroke-width:60;stroke-linecap:round;stroke-linejoin:round;stroke-opacity:1"
       id="g84">
      <path
         d="m 50500,31000 h 500"
         id="path80"
         inkscape:connector-curvature="0" />
      <path
         d="m 48500,31000 h -500"
         id="path82"
         inkscape:connector-curvature="0" />
    </g>
    <g
       style="fill:#008484;fill-opacity:0;stroke:#008484;stroke-width:60;stroke-linecap:round;stroke-linejoin:round;stroke-opacity:1"
       id="g106">
      <path
         d="m 49410,29170 -160,-240"
         id="path86"
         inkscape:connector-curvature="0" />
      <path
         d="m 49130,29170 v -500 h 190 l 40,30 30,20 20,50 v 70 l -20,50 -30,20 -40,20 h -190"
         id="path88"
         inkscape:connector-curvature="0" />
      <path
         d="m 49890,29170 h -290"
         id="path90"
         inkscape:connector-curvature="0" />
      <path
         d="m 49750,29170 v -500 l -50,70 -50,50 -50,20"
         id="path92"
         inkscape:connector-curvature="0" />
      <path
         d="m 48860,29750 v 330"
         id="path94"
         inkscape:connector-curvature="0" />
      <path
         d="m 48750,29560 -120,350 h 310"
         id="path96"
         inkscape:connector-curvature="0" />
      <path
         d="m 49080,29580 h 330 l -210,500"
         id="path98"
         inkscape:connector-curvature="0" />
      <path
         d="m 49700,29580 h 50 l 40,30 30,20 20,50 20,90 v 120 l -20,100 -20,40 -30,30 -40,20 h -50 l -50,-20 -20,-30 -30,-40 -20,-100 v -120 l 20,-90 30,-50 20,-20 50,-30"
         id="path100"
         inkscape:connector-curvature="0" />
      <path
         d="m 50360,30080 -160,-240"
         id="path102"
         inkscape:connector-curvature="0" />
      <path
         d="m 50080,30080 v -500 h 190 l 50,30 20,20 20,50 v 70 l -20,50 -20,20 -50,20 h -190"
         id="path104"
         inkscape:connector-curvature="0" />
    </g>
  </g>
  <g
     style="fill:#008484;fill-opacity:0;stroke:#008484;stroke-width:0;stroke-linecap:round;stroke-linejoin:round;stroke-opacity:1"
     id="g144"
     transform="translate(-44700,-23789.573)">
    <g
       id="g110" />
    <g
       style="fill:#840000;fill-opacity:0;stroke:#840000;stroke-width:0;stroke-linecap:round;stroke-linejoin:round;stroke-opacity:1"
       id="g112" />
    <g
       style="fill:#840000;fill-opacity:0;stroke:#840000;stroke-width:100;stroke-linecap:round;stroke-linejoin:round;stroke-opacity:1"
       id="g116">
      <rect
         x="54100"
         y="26000"
         width="800"
         height="2000"
         rx="0"
         id="rect114" />
    </g>
    <g
       style="fill:#840000;fill-opacity:0;stroke:#840000;stroke-width:60;stroke-linecap:round;stroke-linejoin:round;stroke-opacity:1"
       id="g122">
      <path
         d="m 54500,26000 v -500"
         id="path118"
         inkscape:connector-curvature="0" />
      <path
         d="m 54500,28000 v 500"
         id="path120"
         inkscape:connector-curvature="0" />
    </g>
    <g
       style="fill:#008484;fill-opacity:0;stroke:#008484;stroke-width:60;stroke-linecap:round;stroke-linejoin:round;stroke-opacity:1"
       id="g142">
      <path
         d="m 55630,26780 -160,-240"
         id="path124"
         inkscape:connector-curvature="0" />
      <path
         d="m 55350,26780 v -500 h 190 l 40,30 30,20 20,50 v 70 l -20,50 -30,20 -40,20 h -190"
         id="path126"
         inkscape:connector-curvature="0" />
      <path
         d="m 55820,26330 30,-20 40,-30 h 120 l 50,30 20,20 30,50 v 40 l -30,80 -280,280 h 310"
         id="path128"
         inkscape:connector-curvature="0" />
      <path
         d="m 55550,27360 v 330"
         id="path130"
         inkscape:connector-curvature="0" />
      <path
         d="m 55440,27170 -120,350 h 310"
         id="path132"
         inkscape:connector-curvature="0" />
      <path
         d="m 55770,27190 h 330 l -210,500"
         id="path134"
         inkscape:connector-curvature="0" />
      <path
         d="m 56390,27190 h 50 l 40,30 30,20 20,50 20,90 v 120 l -20,100 -20,40 -30,30 -40,20 h -50 l -50,-20 -20,-30 -30,-40 -20,-100 v -120 l 20,-90 30,-50 20,-20 50,-30"
         id="path136"
         inkscape:connector-curvature="0" />
      <path
         d="m 57050,27690 -160,-240"
         id="path138"
         inkscape:connector-curvature="0" />
      <path
         d="m 56770,27690 v -500 h 190 l 50,30 20,20 20,50 v 70 l -20,50 -20,20 -50,20 h -190"
         id="path140"
         inkscape:connector-curvature="0" />
    </g>
  </g>
  <g
     style="fill:#008400;fill-opacity:0;stroke:#008400;stroke-width:60;stroke-linecap:round;stroke-linejoin:round;stroke-opacity:1"
     id="g150"
     transform="translate(-44700,-23789.573)">
    <path
       d="m 51000,31000 h 500"
       id="path146"
       inkscape:connector-curvature="0" />
    <path
       d="m 54500,28500 v 500"
       id="path148"
       inkscape:connector-curvature="0" />
  </g>
  <g
     style="fill:#008400;fill-opacity:0;stroke:#008400;stroke-width:0;stroke-linecap:round;stroke-linejoin:round;stroke-opacity:1"
     id="g172"
     transform="translate(-44700,-23789.573)">
    <g
       id="g152" />
    <g
       style="fill:#840000;fill-opacity:0;stroke:#840000;stroke-width:0;stroke-linecap:round;stroke-linejoin:round;stroke-opacity:1"
       id="g154" />
    <g
       style="fill:#840000;fill-opacity:0;stroke:#840000;stroke-width:60;stroke-linecap:round;stroke-linejoin:round;stroke-opacity:1"
       id="g160">
      <circle
         cx="55250"
         cy="34500"
         r="250"
         id="circle156" />
      <path
         style="fill:none;fill-opacity:0;stroke:#840000;stroke-width:60;stroke-linecap:round;stroke-linejoin:round;stroke-opacity:1"
         d="m 54500,34500 h 500 z"
         id="path158"
         inkscape:connector-curvature="0" />
    </g>
    <g
       style="fill:#008484;fill-opacity:0;stroke:#008484;stroke-width:60;stroke-linecap:round;stroke-linejoin:round;stroke-opacity:1"
       id="g170">
      <path
         d="m 55850,34410 170,500 160,-500"
         id="path162"
         inkscape:connector-curvature="0" />
      <path
         d="m 56640,34860 -30,30 -70,20 h -50 l -70,-20 -50,-50 -20,-50 -20,-90 v -70 l 20,-100 20,-50 50,-40 70,-30 h 50 l 70,30 30,20"
         id="path164"
         inkscape:connector-curvature="0" />
      <path
         d="m 56950,34410 h 90 l 50,30 50,40 20,100 v 160 l -20,100 -50,50 -50,20 h -90 l -50,-20 -50,-50 -20,-100 v -160 l 20,-100 50,-40 50,-30"
         id="path166"
         inkscape:connector-curvature="0" />
      <path
         d="m 57370,34910 v -500 l 170,360 170,-360 v 500"
         id="path168"
         inkscape:connector-curvature="0" />
    </g>
  </g>
  <g
     style="fill:#008400;fill-opacity:0;stroke:#008400;stroke-width:60;stroke-linecap:round;stroke-linejoin:round;stroke-opacity:1"
     id="g176"
     transform="translate(-44700,-23789.573)">
    <path
       d="m 54500,33000 v 1500"
       id="path174"
       inkscape:connector-curvature="0" />
  </g>
  <g
     style="fill:#008400;fill-opacity:0;stroke:#008400;stroke-width:0;stroke-linecap:round;stroke-linejoin:round;stroke-opacity:1"
     id="g228"
     transform="translate(-44700,-23789.573)">
    <g
       id="g178" />
    <g
       style="fill:#840000;fill-opacity:0;stroke:#840000;stroke-width:0;stroke-linecap:round;stroke-linejoin:round;stroke-opacity:1"
       id="g180" />
    <g
       style="fill:#ffffc2;fill-opacity:0;stroke:#ffffc2;stroke-width:0;stroke-linecap:round;stroke-linejoin:round;stroke-opacity:1"
       id="g182" />
    <g
       style="fill:#ffffc2;fill-opacity:0.6;stroke:#ffffc2;stroke-width:0;stroke-linecap:round;stroke-linejoin:round;stroke-opacity:1"
       id="g186">
      <rect
         x="56000"
         y="24000"
         width="1000"
         height="1000"
         rx="0"
         id="rect184" />
    </g>
    <g
       style="fill:#840000;fill-opacity:0.6;stroke:#840000;stroke-width:0;stroke-linecap:round;stroke-linejoin:round;stroke-opacity:1"
       id="g188" />
    <g
       style="fill:#840000;fill-opacity:0;stroke:#840000;stroke-width:100;stroke-linecap:round;stroke-linejoin:round;stroke-opacity:1"
       id="g192">
      <rect
         x="56000"
         y="24000"
         width="1000"
         height="1000"
         rx="0"
         id="rect190" />
    </g>
    <g
       style="fill:#840000;fill-opacity:0;stroke:#840000;stroke-width:60;stroke-linecap:round;stroke-linejoin:round;stroke-opacity:1"
       id="g202">
      <rect
         x="56000"
         y="24450"
         width="500"
         height="100"
         rx="0"
         id="rect194" />
      <path
         d="M 56000,24500 H 54500"
         id="path196"
         inkscape:connector-curvature="0" />
      <path
         d="m 55390,24370 h -290"
         id="path198"
         inkscape:connector-curvature="0" />
      <path
         d="m 55250,24370 v -500 l -50,70 -50,50 -50,20"
         id="path200"
         inkscape:connector-curvature="0" />
    </g>
    <g
       style="fill:#008484;fill-opacity:0;stroke:#008484;stroke-width:60;stroke-linecap:round;stroke-linejoin:round;stroke-opacity:1"
       id="g226">
      <path
         d="m 57590,23820 v 360 l -30,70 -40,50 -70,20 h -50"
         id="path204"
         inkscape:connector-curvature="0" />
      <path
         d="m 57800,23870 30,-20 40,-30 h 120 l 50,30 20,20 30,50 v 40 l -30,80 -280,280 h 310"
         id="path206"
         inkscape:connector-curvature="0" />
      <path
         d="m 57440,25230 v -500 h 190 l 50,30 20,20 30,50 v 70 l -30,50 -20,20 -50,20 h -190"
         id="path208"
         inkscape:connector-curvature="0" />
      <path
         d="m 57920,25210 70,20 h 120 l 50,-20 20,-30 20,-40 v -50 l -20,-50 -20,-20 -50,-30 -100,-20 -40,-20 -30,-30 -20,-50 v -40 l 20,-50 30,-20 40,-30 h 120 l 70,30"
         id="path210"
         inkscape:connector-curvature="0" />
      <path
         d="m 58300,25280 h 380"
         id="path212"
         inkscape:connector-curvature="0" />
      <path
         d="m 58890,24730 h 100 l 50,30 40,40 30,100 v 160 l -30,100 -40,50 -50,20 h -100 l -40,-20 -50,-50 -20,-100 v -160 l 20,-100 50,-40 40,-30"
         id="path214"
         inkscape:connector-curvature="0" />
      <path
         d="m 59320,25230 v -500 l 290,500 v -500"
         id="path216"
         inkscape:connector-curvature="0" />
      <path
         d="m 59820,24900 h 360"
         id="path218"
         inkscape:connector-curvature="0" />
      <path
         d="m 59970,24680 -150,650"
         id="path220"
         inkscape:connector-curvature="0" />
      <path
         d="m 60130,25110 h -350"
         id="path222"
         inkscape:connector-curvature="0" />
      <path
         d="m 59990,25330 140,-650"
         id="path224"
         inkscape:connector-curvature="0" />
    </g>
  </g>
  <g
     style="fill:#008484;fill-opacity:0;stroke:#008484;stroke-width:0;stroke-linecap:round;stroke-linejoin:round;stroke-opacity:1"
     id="g282"
     transform="translate(-44700,-23789.573)">
    <g
       id="g230" />
    <g
       style="fill:#840000;fill-opacity:0;stroke:#840000;stroke-width:0;stroke-linecap:round;stroke-linejoin:round;stroke-opacity:1"
       id="g232" />
    <g
       style="fill:#ffffc2;fill-opacity:0;stroke:#ffffc2;stroke-width:0;stroke-linecap:round;stroke-linejoin:round;stroke-opacity:1"
       id="g234" />
    <g
       style="fill:#ffffc2;fill-opacity:0.6;stroke:#ffffc2;stroke-width:0;stroke-linecap:round;stroke-linejoin:round;stroke-opacity:1"
       id="g238">
      <rect
         x="45000"
         y="30500"
         width="1000"
         height="1000"
         rx="0"
         id="rect236" />
    </g>
    <g
       style="fill:#840000;fill-opacity:0.6;stroke:#840000;stroke-width:0;stroke-linecap:round;stroke-linejoin:round;stroke-opacity:1"
       id="g240" />
    <g
       style="fill:#840000;fill-opacity:0;stroke:#840000;stroke-width:100;stroke-linecap:round;stroke-linejoin:round;stroke-opacity:1"
       id="g244">
      <rect
         x="45000"
         y="30500"
         width="1000"
         height="1000"
         rx="0"
         id="rect242" />
    </g>
    <g
       style="fill:#840000;fill-opacity:0;stroke:#840000;stroke-width:60;stroke-linecap:round;stroke-linejoin:round;stroke-opacity:1"
       id="g254">
      <rect
         x="45500"
         y="30950"
         width="500"
         height="100"
         rx="0"
         id="rect246" />
      <path
         d="m 46000,31000 h 1500"
         id="path248"
         inkscape:connector-curvature="0" />
      <path
         d="m 46890,30870 h -290"
         id="path250"
         inkscape:connector-curvature="0" />
      <path
         d="m 46750,30870 v -500 l -50,70 -50,50 -50,20"
         id="path252"
         inkscape:connector-curvature="0" />
    </g>
    <g
       style="fill:#008484;fill-opacity:0;stroke:#008484;stroke-width:60;stroke-linecap:round;stroke-linejoin:round;stroke-opacity:1"
       id="g280">
      <path
         d="m 46150,28440 v 360 l -30,70 -40,50 -70,20 h -50"
         id="path256"
         inkscape:connector-curvature="0" />
      <path
         d="m 46650,28940 h -290"
         id="path258"
         inkscape:connector-curvature="0" />
      <path
         d="m 46510,28940 v -500 l -50,70 -50,50 -50,20"
         id="path260"
         inkscape:connector-curvature="0" />
      <path
         d="m 45040,29800 -20,30 -70,20 h -50 l -70,-20 -50,-50 -20,-50 -30,-90 v -70 l 30,-100 20,-50 50,-40 70,-30 h 50 l 70,30 20,20"
         id="path262"
         inkscape:connector-curvature="0" />
      <path
         d="m 45350,29350 h 100 l 40,30 50,40 30,100 v 160 l -30,100 -50,50 -40,20 h -100 l -50,-20 -40,-50 -30,-100 v -160 l 30,-100 40,-40 50,-30"
         id="path264"
         inkscape:connector-curvature="0" />
      <path
         d="m 45780,29850 v -500 l 290,500 v -500"
         id="path266"
         inkscape:connector-curvature="0" />
      <path
         d="m 46230,29350 h 290"
         id="path268"
         inkscape:connector-curvature="0" />
      <path
         d="m 46370,29850 v -500"
         id="path270"
         inkscape:connector-curvature="0" />
      <path
         d="m 46970,29850 -170,-240"
         id="path272"
         inkscape:connector-curvature="0" />
      <path
         d="m 46680,29850 v -500 h 190 l 50,30 30,20 20,50 v 70 l -20,50 -30,20 -50,20 h -190"
         id="path274"
         inkscape:connector-curvature="0" />
      <path
         d="m 47280,29350 h 90 l 50,30 50,40 20,100 v 160 l -20,100 -50,50 -50,20 h -90 l -50,-20 -50,-50 -20,-100 v -160 l 20,-100 50,-40 50,-30"
         id="path276"
         inkscape:connector-curvature="0" />
      <path
         d="m 47950,29850 h -240 v -500"
         id="path278"
         inkscape:connector-curvature="0" />
    </g>
  </g>
  <g
     style="fill:#008400;fill-opacity:0;stroke:#008400;stroke-width:60;stroke-linecap:round;stroke-linejoin:round;stroke-opacity:1"
     id="g288"
     transform="translate(-44700,-23789.573)">
    <path
       d="m 47500,31000 h 500"
       id="path284"
       inkscape:connector-curvature="0" />
    <path
       d="m 54500,24500 v 1000"
       id="path286"
       inkscape:connector-curvature="0" />
  </g>
</svg>
